<svg id="Group_1602" data-name="Group 1602" xmlns="http://www.w3.org/2000/svg" width="56.931" height="58.821" viewBox="0 0 56.931 58.821">
  <g id="Group_1584" data-name="Group 1584" transform="translate(0 0)">
    <path id="Path_68" data-name="Path 68" d="M81.333,23.43a4.243,4.243,0,0,0-3.243-1.506H72.123l.794-5.267a.861.861,0,0,0-.211-.713.838.838,0,0,0-.675-.32H35.9a.857.857,0,0,0-.675.32.908.908,0,0,0-.211.713l.794,5.267H30.873A5.17,5.17,0,0,0,27,23.723a5.858,5.858,0,0,0-1.363,4.655l.992,7.251c1.019,7.383,6.722,13.019,13.548,13.68a9.619,9.619,0,0,0,7.622,6.034c.024,6.031-3.268,8.335-4.048,8.784H39.709a.892.892,0,0,0-.9.9v8.546a.87.87,0,0,0,.9.872H68.235a.866.866,0,0,0,.886-.872V65.027a.889.889,0,0,0-.886-.9H64.174c-.742-.45-4.051-2.753-4.037-8.784a9.619,9.619,0,0,0,7.622-6.034c6.825-.634,12.542-6.3,13.561-13.68l1.138-8.335A4.831,4.831,0,0,0,81.333,23.43ZM28.4,35.39l-1.005-7.251a4.024,4.024,0,0,1,.954-3.227A3.251,3.251,0,0,1,30.873,23.7h5.2l3.52,23.47a1.094,1.094,0,0,1,.054.29C33.954,46.583,29.259,41.687,28.4,35.39Zm38.95,37.283H40.6V65.9H67.346Zm-5.939-8.546H46.524a12.3,12.3,0,0,0,3.043-8.679h8.8A12.3,12.3,0,0,0,61.407,64.127ZM58.736,53.65H49.209A7.871,7.871,0,0,1,41.365,46.9L36.932,17.423H71L66.58,46.9A7.882,7.882,0,0,1,58.736,53.65ZM80.7,27.056,79.558,35.39c-.872,6.3-5.568,11.193-11.272,12.066.014-.106.041-.184.054-.29L71.858,23.7H78.09a2.487,2.487,0,0,1,1.9.9A3.136,3.136,0,0,1,80.7,27.056Z" transform="translate(-25.575 -15.624)" fill="#e1001e"/>
  </g>
</svg>
