<svg xmlns="http://www.w3.org/2000/svg" width="58.833" height="58.637" viewBox="0 0 58.833 58.637">
  <g id="Group_1665" data-name="Group 1665" transform="translate(-1158.847 -1546)">
    <g id="Group_1663" data-name="Group 1663" transform="translate(110 113)">
      <g id="Group_1608" data-name="Group 1608" transform="translate(1048.847 1433)">
        <g id="Group_1605" data-name="Group 1605" transform="translate(0 23.312)">
          <path id="Path_71" data-name="Path 71" d="M103.784,102.013c-1.311-.528-2.449-1.005-6.18-6.059a3.5,3.5,0,0,0-2.1-1.4,38.438,38.438,0,0,1-1.891-5.424,11.894,11.894,0,0,0-1.39-3.571A2.891,2.891,0,0,0,90,84.336a3.118,3.118,0,0,0-1.615.45,1.875,1.875,0,0,0-1.244-.978,2.366,2.366,0,0,0-2.116.423,4.034,4.034,0,0,0-1.059,2.991c-.263,14.393,8.8,24.873,14.222,29.873a7.669,7.669,0,0,0,9.725.423l.835-.634a6.933,6.933,0,0,0,1.019-10.055C106.482,103.124,105.052,102.514,103.784,102.013ZM89.943,86.135a1.031,1.031,0,0,1,.835.477,10.958,10.958,0,0,1,1.111,3.018,43.86,43.86,0,0,0,1.761,5.132,4.572,4.572,0,0,0-1.363.848,2.2,2.2,0,0,0-.266.263,51.4,51.4,0,0,1-2.579-7.936c-.133-.531-.266-1.008-.4-1.482A1.5,1.5,0,0,1,89.943,86.135Zm19.715,25.746a5.078,5.078,0,0,1-2,3.574l-.832.634a5.834,5.834,0,0,1-7.435-.317c-5.2-4.79-13.905-14.818-13.642-28.577a2.335,2.335,0,0,1,.425-1.588.41.41,0,0,1,.3-.106.543.543,0,0,1,.266.054c.29.157.661,1.639.978,2.831a51.3,51.3,0,0,0,3.864,10.822h0c.675,2.222,2.818,5.132,6.562,8.917a.888.888,0,0,0,1.268-1.244c-4.406-4.473-5.779-6.961-6.164-8.283h0v-.027c-.331-1.162.079-1.507.211-1.612a2.2,2.2,0,0,1,1.6-.688,1.625,1.625,0,0,1,1.084.713c4.048,5.479,5.4,6.034,6.961,6.668,1.138.477,2.314.954,5.305,4.368A5.014,5.014,0,0,1,109.658,111.881Z" transform="translate(-83.958 -83.728)" fill="#e1001e"/>
        </g>
        <g id="Group_1606" data-name="Group 1606" transform="translate(31.329 23.312)">
          <path id="Path_72" data-name="Path 72" d="M133.524,84.23a2.344,2.344,0,0,0-2.105-.423,1.874,1.874,0,0,0-1.257.978,3.1,3.1,0,0,0-1.612-.45,2.914,2.914,0,0,0-2.225,1.219,12.348,12.348,0,0,0-1.387,3.571,38.844,38.844,0,0,1-1.894,5.424,3.537,3.537,0,0,0-2.089,1.376c-3.745,5.08-4.883,5.557-6.191,6.086-1.271.5-2.7,1.111-5.966,4.815a6.869,6.869,0,0,0-1.68,5.24,6.961,6.961,0,0,0,2.685,4.815l.832.634a7.669,7.669,0,0,0,9.725-.423c5.424-5,14.5-15.48,14.222-29.821A4.075,4.075,0,0,0,133.524,84.23Zm-6.869,5.4a11.311,11.311,0,0,1,1.114-3.018,1.03,1.03,0,0,1,.832-.477h.027a1.452,1.452,0,0,1,.872.32c-.133.474-.263.951-.4,1.482a50.518,50.518,0,0,1-2.579,7.936,2.679,2.679,0,0,0-.266-.263,4.572,4.572,0,0,0-1.363-.848A43.787,43.787,0,0,0,126.655,89.631Zm6.153-2.382c.252,13.7-8.454,23.733-13.653,28.523a5.834,5.834,0,0,1-7.435.317l-.835-.634a5.123,5.123,0,0,1-2-3.574,4.993,4.993,0,0,1,1.244-3.861c2.989-3.414,4.167-3.891,5.305-4.368,1.561-.634,2.91-1.189,6.972-6.72a1.754,1.754,0,0,1,1.073-.661h.184a2.431,2.431,0,0,1,1.428.688c.119.106.531.45.211,1.612,0,0-.011,0-.011.027h0c-.385,1.322-1.748,3.81-6.167,8.283a.866.866,0,0,0,.014,1.244.839.839,0,0,0,.623.263.862.862,0,0,0,.634-.263c3.745-3.785,5.888-6.7,6.562-8.917h0a51.48,51.48,0,0,0,3.875-10.822c.306-1.192.675-2.674.967-2.831.4-.106.528,0,.569.051A2.463,2.463,0,0,1,132.809,87.249Z" transform="translate(-107.083 -83.728)" fill="#e1001e"/>
        </g>
        <g id="Group_1607" data-name="Group 1607" transform="translate(20.712 10.453)">
          <path id="Path_73" data-name="Path 73" d="M114.409,79.661h-3.189V76.486a2.247,2.247,0,0,0-2.249-2.249h-2.038a2.247,2.247,0,0,0-2.249,2.249v3.176h-3.189a2.252,2.252,0,0,0-2.249,2.273v2.038a2.226,2.226,0,0,0,2.249,2.225h3.189v3.2a2.247,2.247,0,0,0,2.249,2.249h2.038a2.247,2.247,0,0,0,2.249-2.249V86.2h3.189a2.238,2.238,0,0,0,2.262-2.225V81.935A2.264,2.264,0,0,0,114.409,79.661Zm.474,4.311a.468.468,0,0,1-.474.45h-4.075a.889.889,0,0,0-.886.9V89.4a.476.476,0,0,1-.477.477h-2.038a.463.463,0,0,1-.463-.477V85.322a.894.894,0,0,0-.9-.9h-4.075a.457.457,0,0,1-.463-.45V81.935a.462.462,0,0,1,.463-.474h4.075a.911.911,0,0,0,.9-.9V76.486a.463.463,0,0,1,.463-.477h2.038a.476.476,0,0,1,.477.477v4.075a.907.907,0,0,0,.886.9h4.075a.473.473,0,0,1,.474.474Z" transform="translate(-99.246 -74.237)" fill="#e1001e"/>
        </g>
      </g>
      <g id="Group_1604" data-name="Group 1604" transform="translate(1056.869 1433)">
        <path id="Path_70" data-name="Path 70" d="M132.666,78.429a11.893,11.893,0,0,0-21.392-7.172A11.895,11.895,0,0,0,89.88,78.429c0,13.336,20.083,25.746,20.931,26.274a.992.992,0,0,0,.463.133.957.957,0,0,0,.463-.133C112.6,104.175,132.666,91.766,132.666,78.429Zm-21.392,24.448c-3.018-1.932-19.609-13.176-19.609-24.448a10.116,10.116,0,0,1,18.842-5.135.914.914,0,0,0,1.534,0,10.114,10.114,0,0,1,18.839,5.135C130.881,89.7,114.29,100.946,111.274,102.877Z" transform="translate(-89.88 -66.521)" fill="#e1001e"/>
      </g>
    </g>
  </g>
</svg>
