<svg xmlns="http://www.w3.org/2000/svg" width="45.788" height="58.848" viewBox="0 0 45.788 58.848">
  <g id="Group_1648" data-name="Group 1648" transform="translate(-725.037 -1605)">
    <g id="Group_1603" data-name="Group 1603" transform="translate(725.037 1605)">
      <g id="Group_1566" data-name="Group 1566" transform="translate(0 0)">
        <path id="Path_52" data-name="Path 52" d="M579.782-134.992h-8.627v-.872a2.7,2.7,0,0,0-2.685-2.7h-3.663a3.593,3.593,0,0,0-3.455-2.672,3.552,3.552,0,0,0-3.452,2.672h-3.693a2.7,2.7,0,0,0-2.672,2.7v.872h-8.627a4.473,4.473,0,0,0-4.457,4.473v43.686a4.467,4.467,0,0,0,4.457,4.446h36.874a4.467,4.467,0,0,0,4.457-4.446v-43.686A4.473,4.473,0,0,0,579.782-134.992Zm-26.461-.872a.891.891,0,0,1,.886-.9h4.46a.91.91,0,0,0,.9-.9,1.776,1.776,0,0,1,1.786-1.772,1.773,1.773,0,0,1,1.772,1.772.91.91,0,0,0,.9.9h4.446a.892.892,0,0,1,.9.9v3.547a.892.892,0,0,1-.9.9H554.207a.891.891,0,0,1-.886-.9Zm29.133,49.032a2.689,2.689,0,0,1-2.672,2.672H542.908a2.691,2.691,0,0,1-2.672-2.672v-43.686a2.7,2.7,0,0,1,2.672-2.7h8.627v.9a2.7,2.7,0,0,0,2.672,2.7H568.47a2.7,2.7,0,0,0,2.685-2.7v-.9h8.627a2.7,2.7,0,0,1,2.672,2.7Z" transform="translate(-538.451 141.235)" fill="#e1001e"/>
      </g>
      <g id="Group_1567" data-name="Group 1567" transform="translate(6.484 28.312)">
        <path id="Path_53" data-name="Path 53" d="M546.358-120.337a3.127,3.127,0,0,0-3.121,3.121,3.128,3.128,0,0,0,3.121,3.124,3.116,3.116,0,0,0,3.108-3.124A3.116,3.116,0,0,0,546.358-120.337Zm0,4.471a1.341,1.341,0,0,1-1.336-1.349,1.343,1.343,0,0,1,1.336-1.349,1.345,1.345,0,0,1,1.336,1.349A1.343,1.343,0,0,1,546.358-115.866Z" transform="translate(-543.237 120.337)" fill="#e1001e"/>
      </g>
      <g id="Group_1568" data-name="Group 1568" transform="translate(6.484 37.229)">
        <path id="Path_54" data-name="Path 54" d="M546.358-113.755a3.127,3.127,0,0,0-3.121,3.121,3.128,3.128,0,0,0,3.121,3.124,3.116,3.116,0,0,0,3.108-3.124A3.116,3.116,0,0,0,546.358-113.755Zm0,4.446a1.321,1.321,0,0,1-1.336-1.325,1.32,1.32,0,0,1,1.336-1.322,1.322,1.322,0,0,1,1.336,1.322A1.322,1.322,0,0,1,546.358-109.309Z" transform="translate(-543.237 113.755)" fill="#e1001e"/>
      </g>
      <g id="Group_1569" data-name="Group 1569" transform="translate(6.484 46.146)">
        <path id="Path_55" data-name="Path 55" d="M546.358-107.173a3.127,3.127,0,0,0-3.121,3.121,3.128,3.128,0,0,0,3.121,3.124,3.116,3.116,0,0,0,3.108-3.124A3.116,3.116,0,0,0,546.358-107.173Zm0,4.446a1.321,1.321,0,0,1-1.336-1.325,1.343,1.343,0,0,1,1.336-1.349,1.345,1.345,0,0,1,1.336,1.349A1.322,1.322,0,0,1,546.358-102.727Z" transform="translate(-543.237 107.173)" fill="#e1001e"/>
      </g>
      <g id="Group_1570" data-name="Group 1570" transform="translate(15.756 30.561)">
        <path id="Path_56" data-name="Path 56" d="M550.981-116.9H555.8a.892.892,0,0,0,.9-.9.871.871,0,0,0-.9-.872h-4.818a.871.871,0,0,0-.9.872A.892.892,0,0,0,550.981-116.9Z" transform="translate(-550.081 118.677)" fill="#e1001e"/>
      </g>
      <g id="Group_1571" data-name="Group 1571" transform="translate(25.573 30.561)">
        <path id="Path_57" data-name="Path 57" d="M570.176-118.677h-11.96a.869.869,0,0,0-.889.872.89.89,0,0,0,.889.9h11.96a.889.889,0,0,0,.886-.9A.868.868,0,0,0,570.176-118.677Z" transform="translate(-557.327 118.677)" fill="#e1001e"/>
      </g>
      <g id="Group_1572" data-name="Group 1572" transform="translate(15.756 39.451)">
        <path id="Path_58" data-name="Path 58" d="M550.981-110.316h13.735a.9.9,0,0,0,.9-.9.921.921,0,0,0-.9-.9H550.981a.911.911,0,0,0-.9.9A.892.892,0,0,0,550.981-110.316Z" transform="translate(-550.081 112.115)" fill="#e1001e"/>
      </g>
      <g id="Group_1573" data-name="Group 1573" transform="translate(28.247 48.368)">
        <path id="Path_59" data-name="Path 59" d="M565.9-105.533h-5.714a.889.889,0,0,0-.886.9.905.905,0,0,0,.886.9H565.9a.917.917,0,0,0,.9-.9A.9.9,0,0,0,565.9-105.533Z" transform="translate(-559.301 105.533)" fill="#e1001e"/>
      </g>
      <g id="Group_1574" data-name="Group 1574" transform="translate(15.756 48.368)">
        <path id="Path_60" data-name="Path 60" d="M558.47-105.533h-7.489a.894.894,0,0,0-.9.9.91.91,0,0,0,.9.9h7.489a.908.908,0,0,0,.9-.9A.892.892,0,0,0,558.47-105.533Z" transform="translate(-550.081 105.533)" fill="#e1001e"/>
      </g>
      <g id="Group_1575" data-name="Group 1575" transform="translate(16.206 13.521)">
        <path id="Path_61" data-name="Path 61" d="M557.108-117.867a6.706,6.706,0,0,0,6.682-6.693,6.707,6.707,0,0,0-6.682-6.7,6.712,6.712,0,0,0-6.7,6.7A6.711,6.711,0,0,0,557.108-117.867Zm0-11.589a4.9,4.9,0,0,1,4.9,4.9,4.9,4.9,0,0,1-4.9,4.893,4.9,4.9,0,0,1-4.907-4.893A4.9,4.9,0,0,1,557.108-129.456Z" transform="translate(-550.413 131.255)" fill="#e1001e"/>
      </g>
      <g id="Group_1576" data-name="Group 1576" transform="translate(19.555 16.853)">
        <path id="Path_62" data-name="Path 62" d="M553.771-124.533h1.561v1.561a.887.887,0,0,0,.9.872.882.882,0,0,0,.886-.872v-1.561h1.561a.892.892,0,0,0,.889-.9.89.89,0,0,0-.889-.9h-1.561V-127.9a.907.907,0,0,0-.886-.9.911.911,0,0,0-.9.9v1.563h-1.561a.888.888,0,0,0-.886.9A.889.889,0,0,0,553.771-124.533Z" transform="translate(-552.885 128.795)" fill="#e1001e"/>
      </g>
      <g id="Group_1577" data-name="Group 1577" transform="translate(6.484 13.521)">
        <path id="Path_63" data-name="Path 63" d="M550.737-131.255h-6.614a.888.888,0,0,0-.886.9v10.689a.888.888,0,0,0,.886.9.892.892,0,0,0,.9-.9v-9.79h5.714a.905.905,0,0,0,.886-.9A.888.888,0,0,0,550.737-131.255Z" transform="translate(-543.237 131.255)" fill="#e1001e"/>
      </g>
      <g id="Group_1578" data-name="Group 1578" transform="translate(30.918 13.521)">
        <path id="Path_64" data-name="Path 64" d="M568.776-131.255h-6.6a.892.892,0,0,0-.9.9.91.91,0,0,0,.9.9h5.7v9.79a.891.891,0,0,0,.9.9.889.889,0,0,0,.886-.9v-10.689A.889.889,0,0,0,568.776-131.255Z" transform="translate(-561.273 131.255)" fill="#e1001e"/>
      </g>
    </g>
  </g>
</svg>
