<svg xmlns="http://www.w3.org/2000/svg" width="58.832" height="56.095" viewBox="0 0 58.832 56.095">
  <g id="Group_1649" data-name="Group 1649" transform="translate(-1376.689 -1436)">
    <g id="Group_1601" data-name="Group 1601" transform="translate(1376.689 1436)">
      <g id="Group_1562" data-name="Group 1562" transform="translate(0 0)">
        <path id="Path_49" data-name="Path 49" d="M945.717-671.732c-.014-.027,0-.079-.014-.106l-11.152-33.95v-6.137a5.34,5.34,0,0,0-5.346-5.346H903.459a5.351,5.351,0,0,0-5.359,5.346v6.137l-11.139,33.95a.722.722,0,0,0-.041.238.085.085,0,0,0-.011.052v9.5a.885.885,0,0,0,.9.872.884.884,0,0,0,.886-.872v-8.627h55.274v8.627a.884.884,0,0,0,.886.872.882.882,0,0,0,.886-.872v-9.5A.805.805,0,0,0,945.717-671.732Zm-45.829-40.193a3.565,3.565,0,0,1,3.571-3.574H929.2a3.555,3.555,0,0,1,3.558,3.574v5.4h-1.693c-1.07-2.382-4.075-4.127-7.606-4.127a8.559,8.559,0,0,0-7.131,3.281,8.578,8.578,0,0,0-7.132-3.281c-3.533,0-6.535,1.745-7.608,4.127h-1.7Zm29.818,7.329a1.245,1.245,0,0,1-.344,1.005c-.726.74-2.842.715-5.067.715h-1.666c-2.222.024-4.338.024-5.067-.715a1.245,1.245,0,0,1-.344-1.005c0-2.382,2.8-4.286,6.245-4.286S929.706-706.977,929.706-704.6Zm-14.274,0a1.261,1.261,0,0,1-.331,1.005c-.729.74-2.845.715-5.067.715h-1.669c-2.222.024-4.338.024-5.08-.715a1.313,1.313,0,0,1-.331-1.005c0-2.382,2.807-4.286,6.245-4.286S915.432-706.977,915.432-704.6Zm-15.8-.16h1.547c0,.054-.014.106-.014.16a3.059,3.059,0,0,0,.872,2.276c1.244,1.244,3.6,1.244,6.338,1.244h2.4c2.382,0,4.406-.106,5.557-1.217,1.151,1.111,3.176,1.217,5.544,1.217h2.406c2.726,0,5.08,0,6.338-1.244a3.041,3.041,0,0,0,.862-2.276v-.16h1.534l1.68,5.107-38.763,6.191Zm28.762,7.912-22.08,9.05-8.706-4.127Zm-39.359,24.4,6.123-18.655,10.743,5.107a.931.931,0,0,0,.385.079.7.7,0,0,0,.33-.079l28.7-11.748,8.307,25.3Z" transform="translate(-886.909 717.271)" fill="#e1001e"/>
      </g>
      <g id="Group_1563" data-name="Group 1563" transform="translate(5.357 49.747)">
        <path id="Path_50" data-name="Path 50" d="M938.109-680.551h-46.36a.889.889,0,0,0-.886.9.885.885,0,0,0,.886.873h46.36a.885.885,0,0,0,.886-.873A.889.889,0,0,0,938.109-680.551Z" transform="translate(-890.863 680.551)" fill="#e1001e"/>
      </g>
    </g>
  </g>
</svg>
