<svg xmlns="http://www.w3.org/2000/svg" width="113.955" height="94.299" viewBox="0 0 113.955 94.299">
  <g id="Group_1717" data-name="Group 1717" transform="matrix(0.966, -0.259, 0.259, 0.966, -884.419, -722.758)">
    <g id="Group_1724" data-name="Group 1724" transform="matrix(0.966, -0.259, 0.259, 0.966, 700.923, 956.23)">
      <path id="Path_75" data-name="Path 75" d="M38.059,80.214.857,80.2A.878.878,0,0,1,0,79.338V78.5L.039.857A.877.877,0,0,1,.906,0L7.987,0a.83.83,0,0,1,.83.83A10.661,10.661,0,1,0,30.139.844a.83.83,0,0,1,.83-.83l7.13,0a.878.878,0,0,1,.857.857v.839l-.039,77.642A.878.878,0,0,1,38.059,80.214ZM1.66,78.536l35.6.018L37.3,1.678l-5.525,0A12.321,12.321,0,0,1,7.184,1.663L1.7,1.66Z" fill="#b9b9b9"/>
      <g id="Group_1717-2" data-name="Group 1717" transform="translate(1.516 24.065)">
        <path id="Path_76" data-name="Path 76" d="M35.251,1.659H28.367a.83.83,0,1,1,0-1.659h6.884a.83.83,0,1,1,0,1.659Zm-13.768,0H14.6A.83.83,0,1,1,14.6,0h6.884a.83.83,0,1,1,0,1.659Zm-13.769,0H.83A.83.83,0,0,1,.83,0H7.714a.83.83,0,1,1,0,1.659Z" fill="#b9b9b9"/>
      </g>
      <g id="Group_1723" data-name="Group 1723" transform="translate(8.768 39.277)">
        <g id="Group_1718" data-name="Group 1718" transform="translate(4.214)">
          <path id="Path_77" data-name="Path 77" d="M.829,25.519a.831.831,0,0,1-.737-1.211L12.407.449a.83.83,0,0,1,1.475.761L1.567,25.07A.829.829,0,0,1,.829,25.519Z" fill="#b9b9b9"/>
        </g>
        <g id="Group_1722" data-name="Group 1722" transform="translate(0 0.389)">
          <g id="Group_1719" data-name="Group 1719">
            <path id="Path_78" data-name="Path 78" d="M4.747,11.418A4.39,4.39,0,0,1,1.426,9.971,6.308,6.308,0,0,1,0,5.685,6.444,6.444,0,0,1,1.064,1.813,4.133,4.133,0,0,1,4.582,0,4.569,4.569,0,0,1,8.1,1.43,6.022,6.022,0,0,1,9.558,5.6,5.984,5.984,0,0,1,8.285,9.8a4.5,4.5,0,0,1-3.417,1.615ZM4.71,1.659H4.62A2.494,2.494,0,0,0,2.435,2.75a4.762,4.762,0,0,0-.773,2.9,4.762,4.762,0,0,0,.976,3.19,2.756,2.756,0,0,0,2.192.92,2.87,2.87,0,0,0,2.2-1.045A4.413,4.413,0,0,0,7.9,5.642,4.463,4.463,0,0,0,6.908,2.58,2.906,2.906,0,0,0,4.71,1.659Z" fill="#b9b9b9"/>
          </g>
          <g id="Group_1721" data-name="Group 1721" transform="translate(13.399 13.408)">
            <g id="Group_1720" data-name="Group 1720">
              <path id="Path_79" data-name="Path 79" d="M4.747,11.418A4.381,4.381,0,0,1,1.425,9.964,6.318,6.318,0,0,1,0,5.685,6.437,6.437,0,0,1,1.066,1.806,4.15,4.15,0,0,1,4.594,0,4.568,4.568,0,0,1,8.117,1.43,6.023,6.023,0,0,1,9.571,5.6,5.989,5.989,0,0,1,8.3,9.8a4.519,4.519,0,0,1-3.43,1.615ZM1.662,5.647a4.764,4.764,0,0,0,.978,3.186,2.753,2.753,0,0,0,2.191.925A2.882,2.882,0,0,0,7.046,8.713a4.41,4.41,0,0,0,.866-3.07,4.459,4.459,0,0,0-.991-3.062,2.911,2.911,0,0,0-2.289-.92,2.511,2.511,0,0,0-2.2,1.085,4.757,4.757,0,0,0-.772,2.9Z" fill="#b9b9b9"/>
            </g>
          </g>
        </g>
      </g>
    </g>
    <g id="Group_1725" data-name="Group 1725" transform="matrix(0.966, -0.259, 0.259, 0.966, 643.552, 998.091)">
      <line id="Line_16" data-name="Line 16" x1="24.431" transform="translate(31.17 31.477)" fill="none" stroke="#b1b2b2" stroke-linecap="round" stroke-width="2" stroke-dasharray="20 4"/>
      <line id="Line_17" data-name="Line 17" x1="55.601" transform="translate(0 20.985)" fill="none" stroke="#b1b2b2" stroke-linecap="round" stroke-width="2" stroke-dasharray="30 4"/>
      <line id="Line_18" data-name="Line 18" x1="38.752" transform="translate(16.849 10.492)" fill="none" stroke="#b1b2b2" stroke-linecap="round" stroke-width="2" stroke-dasharray="25 4"/>
      <line id="Line_19" data-name="Line 19" x1="48.862" transform="translate(6.74 0)" fill="none" stroke="#b1b2b2" stroke-linecap="round" stroke-width="2" stroke-dasharray="20 4"/>
    </g>
  </g>
</svg>
